<svg width="112" height="76" viewBox="0 0 112 76" fill="none" xmlns="http://www.w3.org/2000/svg">
<g filter="url(#filter0_d_271_997)">
<g clip-path="url(#clip0_271_997)">
<rect x="4" y="3" width="104" height="68" rx="4" fill="#A6C1FF"/>
<g filter="url(#filter1_d_271_997)">
<path d="M23 25C23 20.5817 26.5817 17 31 17H107V36H23V25Z" fill="#E8E8E8"/>
<path d="M23 36H107V72H23V36Z" fill="#535557"/>
<path d="M101 25L97 29" stroke="black" stroke-width="0.771973" stroke-linecap="round" stroke-linejoin="round"/>
<path d="M97 25L101 29" stroke="black" stroke-width="0.771973" stroke-linecap="round" stroke-linejoin="round"/>
<g clip-path="url(#clip1_271_997)">
<path d="M89.3333 24H84.6667C84.2985 24 84 24.2985 84 24.6667V29.3333C84 29.7015 84.2985 30 84.6667 30H89.3333C89.7015 30 90 29.7015 90 29.3333V24.6667C90 24.2985 89.7015 24 89.3333 24Z" stroke="black" stroke-width="0.666667" stroke-linecap="round" stroke-linejoin="round"/>
</g>
<path d="M78.0879 27.0332H72.0879" stroke="black" stroke-width="0.666667" stroke-linecap="round" stroke-linejoin="round"/>
</g>
</g>
<rect x="4.5" y="3.5" width="103" height="67" rx="3.5" stroke="#626769" stroke-opacity="0.2"/>
</g>
<defs>
<filter id="filter0_d_271_997" x="0" y="0" width="112" height="76" filterUnits="userSpaceOnUse" color-interpolation-filters="sRGB">
<feFlood flood-opacity="0" result="BackgroundImageFix"/>
<feColorMatrix in="SourceAlpha" type="matrix" values="0 0 0 0 0 0 0 0 0 0 0 0 0 0 0 0 0 0 127 0" result="hardAlpha"/>
<feOffset dy="1"/>
<feGaussianBlur stdDeviation="2"/>
<feComposite in2="hardAlpha" operator="out"/>
<feColorMatrix type="matrix" values="0 0 0 0 0.384314 0 0 0 0 0.403922 0 0 0 0 0.411765 0 0 0 0.1 0"/>
<feBlend mode="normal" in2="BackgroundImageFix" result="effect1_dropShadow_271_997"/>
<feBlend mode="normal" in="SourceGraphic" in2="effect1_dropShadow_271_997" result="shape"/>
</filter>
<filter id="filter1_d_271_997" x="19" y="14" width="92" height="63" filterUnits="userSpaceOnUse" color-interpolation-filters="sRGB">
<feFlood flood-opacity="0" result="BackgroundImageFix"/>
<feColorMatrix in="SourceAlpha" type="matrix" values="0 0 0 0 0 0 0 0 0 0 0 0 0 0 0 0 0 0 127 0" result="hardAlpha"/>
<feOffset dy="1"/>
<feGaussianBlur stdDeviation="2"/>
<feComposite in2="hardAlpha" operator="out"/>
<feColorMatrix type="matrix" values="0 0 0 0 0 0 0 0 0 0 0 0 0 0 0 0 0 0 0.25 0"/>
<feBlend mode="normal" in2="BackgroundImageFix" result="effect1_dropShadow_271_997"/>
<feBlend mode="normal" in="SourceGraphic" in2="effect1_dropShadow_271_997" result="shape"/>
</filter>
<clipPath id="clip0_271_997">
<rect x="4" y="3" width="104" height="68" rx="4" fill="white"/>
</clipPath>
<clipPath id="clip1_271_997">
<rect width="8" height="8" fill="white" transform="translate(83 23)"/>
</clipPath>
</defs>
</svg>
